<mxfile host="app.diagrams.net" modified="2020-10-07T10:53:11.595Z" agent="5.0 (X11; Linux x86_64) AppleWebKit/537.36 (KHTML, like Gecko) Chrome/85.0.4183.121 Safari/537.36" etag="LJBRBl4ph-_1Cx1Q0qDM" version="13.6.9" type="github">
  <diagram id="DgGO2XxS4pyygO4wThyr" name="Page-1">
    <mxGraphModel dx="1355" dy="806" grid="1" gridSize="10" guides="1" tooltips="1" connect="1" arrows="1" fold="1" page="1" pageScale="1" pageWidth="827" pageHeight="1169" math="0" shadow="0">
      <root>
        <mxCell id="0" />
        <mxCell id="1" parent="0" />
        <mxCell id="g6YVsAuRxL8tz9uc3_Ro-24" style="edgeStyle=orthogonalEdgeStyle;rounded=0;orthogonalLoop=1;jettySize=auto;html=1;exitX=1;exitY=0.5;exitDx=0;exitDy=0;entryX=0;entryY=0.5;entryDx=0;entryDy=0;" edge="1" parent="1" source="g6YVsAuRxL8tz9uc3_Ro-19" target="g6YVsAuRxL8tz9uc3_Ro-20">
          <mxGeometry relative="1" as="geometry" />
        </mxCell>
        <mxCell id="g6YVsAuRxL8tz9uc3_Ro-19" value="&lt;font style=&quot;font-size: 15px&quot;&gt;RGBD&lt;br&gt;Camera&lt;/font&gt;" style="rounded=1;whiteSpace=wrap;html=1;strokeWidth=4;" vertex="1" parent="1">
          <mxGeometry x="60" y="280" width="120" height="60" as="geometry" />
        </mxCell>
        <mxCell id="g6YVsAuRxL8tz9uc3_Ro-25" style="edgeStyle=orthogonalEdgeStyle;rounded=0;orthogonalLoop=1;jettySize=auto;html=1;exitX=1;exitY=0.5;exitDx=0;exitDy=0;entryX=0;entryY=0.5;entryDx=0;entryDy=0;" edge="1" parent="1" source="g6YVsAuRxL8tz9uc3_Ro-20" target="g6YVsAuRxL8tz9uc3_Ro-23">
          <mxGeometry relative="1" as="geometry" />
        </mxCell>
        <mxCell id="g6YVsAuRxL8tz9uc3_Ro-35" value="" style="edgeStyle=orthogonalEdgeStyle;rounded=0;orthogonalLoop=1;jettySize=auto;html=1;" edge="1" parent="1" source="g6YVsAuRxL8tz9uc3_Ro-20" target="g6YVsAuRxL8tz9uc3_Ro-23">
          <mxGeometry relative="1" as="geometry" />
        </mxCell>
        <mxCell id="g6YVsAuRxL8tz9uc3_Ro-20" value="&lt;font style=&quot;font-size: 15px&quot;&gt;Object&lt;br&gt;Detection&lt;/font&gt;" style="rounded=1;whiteSpace=wrap;html=1;strokeWidth=4;" vertex="1" parent="1">
          <mxGeometry x="220" y="280" width="120" height="60" as="geometry" />
        </mxCell>
        <mxCell id="g6YVsAuRxL8tz9uc3_Ro-26" style="edgeStyle=orthogonalEdgeStyle;rounded=0;orthogonalLoop=1;jettySize=auto;html=1;exitX=0.5;exitY=1;exitDx=0;exitDy=0;entryX=0.5;entryY=0;entryDx=0;entryDy=0;" edge="1" parent="1" source="g6YVsAuRxL8tz9uc3_Ro-22" target="g6YVsAuRxL8tz9uc3_Ro-23">
          <mxGeometry relative="1" as="geometry" />
        </mxCell>
        <mxCell id="g6YVsAuRxL8tz9uc3_Ro-22" value="&lt;font style=&quot;font-size: 15px&quot;&gt;Kalman Filter&lt;/font&gt;" style="rounded=1;whiteSpace=wrap;html=1;strokeWidth=4;" vertex="1" parent="1">
          <mxGeometry x="380" y="180" width="120" height="60" as="geometry" />
        </mxCell>
        <mxCell id="g6YVsAuRxL8tz9uc3_Ro-28" value="" style="edgeStyle=orthogonalEdgeStyle;rounded=0;orthogonalLoop=1;jettySize=auto;html=1;" edge="1" parent="1" source="g6YVsAuRxL8tz9uc3_Ro-23" target="g6YVsAuRxL8tz9uc3_Ro-27">
          <mxGeometry relative="1" as="geometry" />
        </mxCell>
        <mxCell id="g6YVsAuRxL8tz9uc3_Ro-32" style="edgeStyle=orthogonalEdgeStyle;rounded=0;orthogonalLoop=1;jettySize=auto;html=1;entryX=1;entryY=0.5;entryDx=0;entryDy=0;" edge="1" parent="1" target="g6YVsAuRxL8tz9uc3_Ro-22">
          <mxGeometry relative="1" as="geometry">
            <mxPoint x="520" y="310" as="sourcePoint" />
            <Array as="points">
              <mxPoint x="520" y="210" />
            </Array>
          </mxGeometry>
        </mxCell>
        <mxCell id="g6YVsAuRxL8tz9uc3_Ro-23" value="&lt;font style=&quot;font-size: 15px&quot;&gt;Data &lt;br&gt;Association&lt;/font&gt;" style="rounded=1;whiteSpace=wrap;html=1;strokeWidth=4;" vertex="1" parent="1">
          <mxGeometry x="380" y="280" width="120" height="60" as="geometry" />
        </mxCell>
        <mxCell id="g6YVsAuRxL8tz9uc3_Ro-27" value="&lt;font style=&quot;font-size: 15px&quot;&gt;Coordinate&lt;br&gt;Transformation&lt;/font&gt;" style="rounded=1;whiteSpace=wrap;html=1;strokeWidth=4;" vertex="1" parent="1">
          <mxGeometry x="550" y="280" width="120" height="60" as="geometry" />
        </mxCell>
        <mxCell id="g6YVsAuRxL8tz9uc3_Ro-29" value="&lt;font style=&quot;font-size: 13px&quot;&gt;Prediction&lt;/font&gt;" style="text;html=1;align=center;verticalAlign=middle;resizable=0;points=[];autosize=1;" vertex="1" parent="1">
          <mxGeometry x="370" y="250" width="70" height="20" as="geometry" />
        </mxCell>
        <mxCell id="g6YVsAuRxL8tz9uc3_Ro-33" value="&lt;font style=&quot;font-size: 13px&quot;&gt;Update&lt;/font&gt;" style="text;html=1;align=center;verticalAlign=middle;resizable=0;points=[];autosize=1;strokeWidth=3;" vertex="1" parent="1">
          <mxGeometry x="515" y="230" width="60" height="20" as="geometry" />
        </mxCell>
      </root>
    </mxGraphModel>
  </diagram>
</mxfile>
